# xmcd CD database file
#
# Track frame offsets:
#	225
#	12454
#	28060
#	39684
#	58832
#	75586
#	89556
#	101564
#	117730
#	132285
#	145309
#	165049
#	183905
#	195994
#	208893
#	223318
#
# Disc length: 3160 seconds
#
# Revision: 0
# Processed by: cddbd v1.5.2PL0 Copyright (c) Steve Scherf et al.
# Submitted via: CDex 1.51
#
DISCID=eb0c5510
DTITLE=Marianne and Michael - Herzlichst
DYEAR=2003
DGENRE=Volksmusik
TTITLE0=Als waer's das  allererste mal
TTITLE1=Aus Boehmen kommt die Musik
TTITLE2=Bergvagabunden
TTITLE3=Das Tal der gruenen Seen
TTITLE4=Der Bua passt nur in D'Lederhosen nei
TTITLE5=Die Kloane Tuer zum Paradies
TTITLE6=Drei weisse Birken
TTITLE7=Ein himmelblauer Regenboden
TTITLE8=Feste feiern
TTITLE9=Heimat,deine Lieder
TTITLE10=Ich Liebe die Heimat,meine Berge
TTITLE11=La Pastorella
TTITLE12=Lieder,die von Herzen kommen
TTITLE13=Patrona Bavariae
TTITLE14=Sag mir einfach,dass D'Mi gern hast
TTITLE15=Wann fangt denn endlich D'Musi an
EXTD=YEAR: 2003
EXTT0=
EXTT1=
EXTT2=
EXTT3=
EXTT4=
EXTT5=
EXTT6=
EXTT7=
EXTT8=
EXTT9=
EXTT10=
EXTT11=
EXTT12=
EXTT13=
EXTT14=
EXTT15=
PLAYORDER=
